<svg aria-hidden="true" style="position: absolute; width: 0; height: 0; overflow: hidden;" version="1.1" xmlns="http://www.w3.org/2000/svg" xmlns:xlink="http://www.w3.org/1999/xlink">
<defs>

<symbol id="icon-telefon" viewBox="0 0 32 32">
<path stroke-linejoin="round" stroke-linecap="round" stroke-miterlimit="4" stroke-width="1.3333" d="M3 9c0 11.045 8.955 20 20 20h3c0.796 0 1.559-0.316 2.121-0.879s0.879-1.326 0.879-2.121v-1.829c0-0.688-0.468-1.288-1.136-1.455l-5.897-1.475c-0.587-0.147-1.203 0.073-1.564 0.556l-1.293 1.724c-0.376 0.501-1.025 0.723-1.613 0.507-2.183-0.803-4.165-2.070-5.81-3.714s-2.912-3.627-3.714-5.81c-0.216-0.588 0.005-1.237 0.507-1.613l1.724-1.293c0.484-0.361 0.703-0.979 0.556-1.564l-1.475-5.897c-0.081-0.324-0.268-0.612-0.532-0.818s-0.588-0.318-0.923-0.318h-1.829c-0.796 0-1.559 0.316-2.121 0.879s-0.879 1.326-0.879 2.121v3z"></path>
</symbol>
<symbol id="icon-e-mail" viewBox="0 0 32 32">
<path stroke-linejoin="round" stroke-linecap="round" stroke-miterlimit="4" stroke-width="1.3333" d="M29 9v14c0 0.796-0.316 1.559-0.879 2.121s-1.326 0.879-2.121 0.879h-20c-0.796 0-1.559-0.316-2.121-0.879s-0.879-1.326-0.879-2.121v-14M29 9c0-0.796-0.316-1.559-0.879-2.121s-1.326-0.879-2.121-0.879h-20c-0.796 0-1.559 0.316-2.121 0.879s-0.879 1.326-0.879 2.121M29 9v0.324c0 0.512-0.131 1.016-0.381 1.463s-0.61 0.823-1.046 1.092l-10 6.153c-0.473 0.291-1.018 0.446-1.573 0.446s-1.1-0.154-1.573-0.446l-10-6.152c-0.436-0.269-0.796-0.644-1.046-1.092s-0.381-0.951-0.381-1.463v-0.325"></path>
</symbol>
<symbol id="icon-map" viewBox="0 0 32 32">
<path stroke-linejoin="round" stroke-linecap="round" stroke-miterlimit="4" stroke-width="1.3333" d="M20 14c0 1.061-0.421 2.078-1.172 2.828s-1.768 1.172-2.828 1.172c-1.061 0-2.078-0.421-2.828-1.172s-1.172-1.768-1.172-2.828c0-1.061 0.421-2.078 1.172-2.828s1.768-1.172 2.828-1.172c1.061 0 2.078 0.421 2.828 1.172s1.172 1.768 1.172 2.828v0z"></path>
<path stroke-linejoin="round" stroke-linecap="round" stroke-miterlimit="4" stroke-width="1.3333" d="M26 14c0 9.523-10 15-10 15s-10-5.477-10-15c0-2.652 1.054-5.196 2.929-7.071s4.419-2.929 7.071-2.929c2.652 0 5.196 1.054 7.071 2.929s2.929 4.419 2.929 7.071v0z"></path>
</symbol>
<symbol id="icon-people" viewBox="0 0 32 32">
<path d="M5.333 0h21.333c2.946 0 5.333 2.388 5.333 5.333v21.333c0 2.946-2.388 5.333-5.333 5.333h-21.333c-2.946 0-5.333-2.388-5.333-5.333v-21.333c0-2.946 2.388-5.333 5.333-5.333z"></path>
<path stroke-linejoin="round" stroke-linecap="round" stroke-miterlimit="4" stroke-width="1.3333" d="M21.333 22c0-0.93 0-1.396-0.115-1.774-0.259-0.852-0.926-1.519-1.778-1.778-0.379-0.115-0.844-0.115-1.774-0.115h-3.333c-0.93 0-1.396 0-1.774 0.115-0.852 0.259-1.519 0.926-1.778 1.778-0.115 0.379-0.115 0.844-0.115 1.774"></path>
<path stroke-linejoin="round" stroke-linecap="round" stroke-miterlimit="4" stroke-width="1.3333" d="M16 16c1.657 0 3-1.343 3-3s-1.343-3-3-3c-1.657 0-3 1.343-3 3s1.343 3 3 3z"></path>
</symbol>
<symbol id="icon-time" viewBox="0 0 32 32">
<path d="M5.333 0h21.333c2.946 0 5.333 2.388 5.333 5.333v21.333c0 2.946-2.388 5.333-5.333 5.333h-21.333c-2.946 0-5.333-2.388-5.333-5.333v-21.333c0-2.946 2.388-5.333 5.333-5.333z"></path>
<path stroke-linejoin="round" stroke-linecap="round" stroke-miterlimit="4" stroke-width="1.3333" d="M20.108 9.333h-8.217c-0.308 0-0.558 0.25-0.558 0.558 0 1.777 0.706 3.481 1.962 4.737l0.813 0.813c0.081 0.081 0.121 0.121 0.15 0.16 0.176 0.236 0.176 0.561 0 0.797-0.029 0.039-0.069 0.079-0.15 0.16l-0.813 0.813c-1.256 1.256-1.962 2.96-1.962 4.737 0 0.308 0.25 0.558 0.558 0.558h8.217c0.308 0 0.558-0.25 0.558-0.558 0-1.777-0.706-3.481-1.962-4.737l-0.813-0.813c-0.081-0.081-0.121-0.121-0.15-0.16-0.176-0.236-0.176-0.561 0-0.797 0.029-0.039 0.069-0.079 0.15-0.16l0.813-0.813c1.256-1.256 1.962-2.96 1.962-4.737 0-0.308-0.25-0.558-0.558-0.558z"></path>
</symbol>
<symbol id="icon-chat" viewBox="0 0 32 32">
<path d="M5.333 0h21.333c2.946 0 5.333 2.388 5.333 5.333v21.333c0 2.946-2.388 5.333-5.333 5.333h-21.333c-2.946 0-5.333-2.388-5.333-5.333v-21.333c0-2.946 2.388-5.333 5.333-5.333z"></path>
<path stroke-linejoin="round" stroke-linecap="round" stroke-miterlimit="4" stroke-width="1.3333" d="M12.063 15.486c-0.041-0.267-0.063-0.541-0.063-0.819 0-2.946 2.403-5.333 5.368-5.333s5.368 2.388 5.368 5.333c0 0.665-0.123 1.302-0.347 1.89-0.047 0.122-0.070 0.183-0.080 0.231s-0.015 0.080-0.016 0.129c-0.001 0.049 0.005 0.102 0.019 0.21l0.268 2.18c0.029 0.236 0.044 0.354 0.004 0.44-0.034 0.075-0.095 0.135-0.171 0.168-0.087 0.037-0.204 0.020-0.44-0.014l-2.123-0.311c-0.111-0.016-0.166-0.024-0.217-0.024s-0.084 0.004-0.133 0.014c-0.049 0.010-0.113 0.034-0.239 0.081-0.589 0.221-1.227 0.341-1.894 0.341-0.279 0-0.553-0.021-0.82-0.062M13.088 22.667c1.977 0 3.579-1.642 3.579-3.667s-1.602-3.667-3.579-3.667c-1.977 0-3.579 1.642-3.579 3.667 0 0.407 0.065 0.799 0.184 1.164 0.051 0.155 0.076 0.232 0.084 0.285 0.009 0.055 0.010 0.086 0.007 0.142-0.003 0.053-0.016 0.114-0.043 0.234l-0.408 1.841 1.997-0.273c0.109-0.015 0.163-0.022 0.211-0.022 0.050 0 0.077 0.003 0.126 0.013 0.047 0.009 0.116 0.034 0.255 0.083 0.366 0.129 0.758 0.199 1.166 0.199z"></path>
</symbol>
<symbol id="icon-pencil" viewBox="0 0 32 32">
<path d="M5.333 0h21.333c2.946 0 5.333 2.388 5.333 5.333v21.333c0 2.946-2.388 5.333-5.333 5.333h-21.333c-2.946 0-5.333-2.388-5.333-5.333v-21.333c0-2.946 2.388-5.333 5.333-5.333z"></path>
<path stroke-linejoin="round" stroke-linecap="round" stroke-miterlimit="4" stroke-width="1.3333" d="M16.519 18l-2.519-2.518"></path>
<path stroke-linejoin="round" stroke-linecap="round" stroke-miterlimit="4" stroke-width="1.3333" d="M9.333 22.666c1.333 0 3.072 0.228 3.983-0.683s0.911-2.389 0-3.3c-0.911-0.911-2.389-0.911-3.3 0s0 2.65-0.683 3.983z"></path>
<path stroke-linejoin="round" stroke-linecap="round" stroke-miterlimit="4" stroke-width="1.3333" d="M13.333 18.666c-0.328-0.328-0.491-0.491-0.584-0.663-0.222-0.411-0.213-0.909 0.025-1.311 0.099-0.168 0.269-0.325 0.609-0.64l6.579-6.091c0.579-0.536 1.479-0.519 2.038 0.039s0.576 1.458 0.039 2.038l-6.091 6.579c-0.315 0.34-0.472 0.51-0.64 0.609-0.403 0.238-0.9 0.247-1.311 0.025-0.172-0.093-0.335-0.256-0.663-0.584z"></path>
</symbol>
<symbol id="icon-mob-menu" viewBox="0 0 44 32">
<path d="M0.668 30.054v-2.667h42.667v2.667h-42.667zM0.668 17.334v-2.667h42.667v2.667h-42.667zM0.668 4.614v-2.667h42.667v2.667h-42.667z"></path>
</symbol>
<symbol id="icon-close-menu" viewBox="0 0 32 32">
<path stroke-linejoin="round" stroke-linecap="round" stroke-miterlimit="4" stroke-width="2" d="M24 8l-16 16"></path>
<path stroke-linejoin="round" stroke-linecap="round" stroke-miterlimit="4" stroke-width="2" d="M8 8l16 16"></path>
</symbol>
<symbol id="icon-Vector-Projects" viewBox="0 0 32 32">
      <path fill="none" stroke="#00b068" stroke-linecap="round" stroke-linejoin="round" stroke-width="3.556" d="M3.111 28.889 28.889 3.111m0 0h-24m24 0v24" style="stroke:var(--color1, #00b068)"/>
    </symbol>
<symbol id="icon-decor-bg" viewBox="0 0 15 32">
<path fill="#00b068" style="fill: var(--color1, #00b068)" d="M13.089 27.511h-0.325c-0.025 0-0.045-0.020-0.045-0.045v-0.325c0-0.025 0.020-0.045 0.045-0.045h0.325c0.025 0 0.045 0.020 0.045 0.045v0.325c0 0.025-0.020 0.045-0.045 0.045z"></path>
<path fill="#00b068" style="fill: var(--color1, #00b068)" d="M11.736 22.371h-0.325c-0.025 0-0.045-0.020-0.045-0.045v-0.325c0-0.025 0.020-0.045 0.045-0.045h0.325c0.025 0 0.045 0.020 0.045 0.045v0.325c0 0.025-0.020 0.045-0.045 0.045z"></path>
<path fill="#00b068" style="fill: var(--color1, #00b068)" d="M9.996 24.927h-0.117c-0.025 0-0.045-0.020-0.045-0.045v-0.117c0-0.025 0.020-0.045 0.045-0.045h0.117c0.025 0 0.045 0.020 0.045 0.045v0.117c0 0.025-0.020 0.045-0.045 0.045z"></path>
<path fill="#00b068" style="fill: var(--color1, #00b068)" d="M14.409 25.758h-0.117c-0.025 0-0.045-0.020-0.045-0.045v-0.117c0-0.025 0.020-0.045 0.045-0.045h0.117c0.025 0 0.045 0.020 0.045 0.045v0.117c0 0.025-0.020 0.045-0.045 0.045z"></path>
<path fill="#00b068" style="fill: var(--color1, #00b068)" d="M8.725 27.921h-0.325c-0.025 0-0.045-0.020-0.045-0.045v-0.325c0-0.025 0.020-0.045 0.045-0.045h0.325c0.025 0 0.045 0.020 0.045 0.045v0.325c0 0.025-0.020 0.045-0.045 0.045z"></path>
<path fill="#00b068" style="fill: var(--color1, #00b068)" d="M6.909 23.984h-0.117c-0.025 0-0.045-0.020-0.045-0.045v-0.117c0-0.025 0.020-0.045 0.045-0.045h0.117c0.025 0 0.045 0.020 0.045 0.045v0.117c0 0.025-0.020 0.045-0.045 0.045z"></path>
<path fill="#00b068" style="fill: var(--color1, #00b068)" d="M11.825 6.007h-0.371c-0.025 0-0.045-0.020-0.045-0.045v-0.371c0-0.025 0.020-0.045 0.045-0.045h0.371c0.025 0 0.045 0.020 0.045 0.045v0.371c0 0.025-0.020 0.045-0.045 0.045z"></path>
<path fill="#00b068" style="fill: var(--color1, #00b068)" d="M9.985 0.962h-0.371c-0.025 0-0.045-0.020-0.045-0.045v-0.371c0-0.025 0.020-0.045 0.045-0.045h0.371c0.025 0 0.045 0.020 0.045 0.045v0.371c0 0.025-0.020 0.045-0.045 0.045z"></path>
<path fill="#00b068" style="fill: var(--color1, #00b068)" d="M13.985 7.875h-0.602c-0.025 0-0.045-0.020-0.045-0.045v-0.602c0-0.025 0.020-0.045 0.045-0.045h0.602c0.025 0 0.045 0.020 0.045 0.045v0.602c0 0.025-0.020 0.045-0.045 0.045z"></path>
<path fill="#00b068" style="fill: var(--color1, #00b068)" d="M8.349 3.595h-0.14c-0.025 0-0.045-0.020-0.045-0.045v-0.14c0-0.025 0.020-0.045 0.045-0.045h0.14c0.025 0 0.045 0.020 0.045 0.045v0.14c0 0.025-0.020 0.045-0.045 0.045z"></path>
<path fill="#00b068" style="fill: var(--color1, #00b068)" d="M14.758 4.516h-0.14c-0.025 0-0.045-0.020-0.045-0.045v-0.14c0-0.025 0.020-0.045 0.045-0.045h0.14c0.025 0 0.045 0.020 0.045 0.045v0.14c0 0.025-0.020 0.045-0.045 0.045z"></path>
<path fill="#00b068" style="fill: var(--color1, #00b068)" d="M4.14 11.11h-0.14c-0.025 0-0.045-0.020-0.045-0.045v-0.14c0-0.025 0.020-0.045 0.045-0.045h0.14c0.025 0 0.045 0.020 0.045 0.045v0.14c0 0.025-0.020 0.045-0.045 0.045z"></path>
<path fill="#00b068" style="fill: var(--color1, #00b068)" d="M6.94 6.916h-0.371c-0.025 0-0.045-0.020-0.045-0.045v-0.371c0-0.025 0.020-0.045 0.045-0.045h0.371c0.025 0 0.045 0.020 0.045 0.045v0.371c0 0.025-0.020 0.045-0.045 0.045z"></path>
<path fill="#00b068" style="fill: var(--color1, #00b068)" d="M5.076 2.549h-0.14c-0.025 0-0.045-0.020-0.045-0.045v-0.14c0-0.025 0.020-0.045 0.045-0.045h0.14c0.025 0 0.045 0.020 0.045 0.045v0.14c0 0.025-0.020 0.045-0.045 0.045z"></path>
<symbol id="icon-decor-bg-1bg" viewBox="0 0 15 32">
<path d="M13.089 27.511h-0.325c-0.025 0-0.045-0.020-0.045-0.045v-0.325c0-0.025 0.020-0.045 0.045-0.045h0.325c0.025 0 0.045 0.020 0.045 0.045v0.325c0 0.025-0.020 0.045-0.045 0.045z"></path>
<path d="M11.736 22.371h-0.325c-0.025 0-0.045-0.020-0.045-0.045v-0.325c0-0.025 0.020-0.045 0.045-0.045h0.325c0.025 0 0.045 0.020 0.045 0.045v0.325c0 0.025-0.020 0.045-0.045 0.045z"></path>
<path d="M9.996 24.927h-0.117c-0.025 0-0.045-0.020-0.045-0.045v-0.117c0-0.025 0.020-0.045 0.045-0.045h0.117c0.025 0 0.045 0.020 0.045 0.045v0.117c0 0.025-0.020 0.045-0.045 0.045z"></path>
<path d="M14.409 25.758h-0.117c-0.025 0-0.045-0.020-0.045-0.045v-0.117c0-0.025 0.020-0.045 0.045-0.045h0.117c0.025 0 0.045 0.020 0.045 0.045v0.117c0 0.025-0.020 0.045-0.045 0.045z"></path>
<path d="M8.725 27.921h-0.325c-0.025 0-0.045-0.020-0.045-0.045v-0.325c0-0.025 0.020-0.045 0.045-0.045h0.325c0.025 0 0.045 0.020 0.045 0.045v0.325c0 0.025-0.020 0.045-0.045 0.045z"></path>
<path d="M6.909 23.984h-0.117c-0.025 0-0.045-0.020-0.045-0.045v-0.117c0-0.025 0.020-0.045 0.045-0.045h0.117c0.025 0 0.045 0.020 0.045 0.045v0.117c0 0.025-0.020 0.045-0.045 0.045z"></path>
<path d="M11.825 6.007h-0.371c-0.025 0-0.045-0.020-0.045-0.045v-0.371c0-0.025 0.020-0.045 0.045-0.045h0.371c0.025 0 0.045 0.020 0.045 0.045v0.371c0 0.025-0.020 0.045-0.045 0.045z"></path>
<path d="M9.985 0.962h-0.371c-0.025 0-0.045-0.020-0.045-0.045v-0.371c0-0.025 0.020-0.045 0.045-0.045h0.371c0.025 0 0.045 0.020 0.045 0.045v0.371c0 0.025-0.020 0.045-0.045 0.045z"></path>
<path d="M13.985 7.875h-0.602c-0.025 0-0.045-0.020-0.045-0.045v-0.602c0-0.025 0.020-0.045 0.045-0.045h0.602c0.025 0 0.045 0.020 0.045 0.045v0.602c0 0.025-0.020 0.045-0.045 0.045z"></path>
<path d="M8.349 3.595h-0.14c-0.025 0-0.045-0.020-0.045-0.045v-0.14c0-0.025 0.020-0.045 0.045-0.045h0.14c0.025 0 0.045 0.020 0.045 0.045v0.14c0 0.025-0.020 0.045-0.045 0.045z"></path>
<path d="M14.758 4.516h-0.14c-0.025 0-0.045-0.020-0.045-0.045v-0.14c0-0.025 0.020-0.045 0.045-0.045h0.14c0.025 0 0.045 0.020 0.045 0.045v0.14c0 0.025-0.020 0.045-0.045 0.045z"></path>
<path d="M4.14 11.11h-0.14c-0.025 0-0.045-0.020-0.045-0.045v-0.14c0-0.025 0.020-0.045 0.045-0.045h0.14c0.025 0 0.045 0.020 0.045 0.045v0.14c0 0.025-0.020 0.045-0.045 0.045z"></path>
<path d="M6.94 6.916h-0.371c-0.025 0-0.045-0.020-0.045-0.045v-0.371c0-0.025 0.020-0.045 0.045-0.045h0.371c0.025 0 0.045 0.020 0.045 0.045v0.371c0 0.025-0.020 0.045-0.045 0.045z"></path>
<path d="M5.076 2.549h-0.14c-0.025 0-0.045-0.020-0.045-0.045v-0.14c0-0.025 0.020-0.045 0.045-0.045h0.14c0.025 0 0.045 0.020 0.045 0.045v0.14c0 0.025-0.020 0.045-0.045 0.045z"></path>
</symbol>
<symbol id="bbb" viewBox="0 0 32 32">
<path stroke-linejoin="round" stroke-linecap="round" stroke-miterlimit="4" stroke-width="2.6667" d="M24 8l-16 16"></path>
<path stroke-linejoin="round" stroke-linecap="round" stroke-miterlimit="4" stroke-width="2.6667" d="M8 8l16 16"></path>
</symbol>

<svg id="icon-Arrow-1" width="30" height="16" viewBox="0 0 30 16" fill="none" xmlns="http://www.w3.org/2000/svg">
  <path d="M1 7C0.447715 7 -4.82823e-08 7.44772 0 8C4.82823e-08 8.55228 0.447715 9 1 9L1 7ZM29.7071 8.7071C30.0976 8.31658 30.0976 7.68341 29.7071 7.29289L23.3431 0.92893C22.9526 0.538406 22.3195 0.538406 21.9289 0.92893C21.5384 1.31945 21.5384 1.95262 21.9289 2.34314L27.5858 8L21.9289 13.6569C21.5384 14.0474 21.5384 14.6805 21.9289 15.0711C22.3195 15.4616 22.9526 15.4616 23.3431 15.0711L29.7071 8.7071ZM1 9L29 9L29 7L1 7L1 9Z" fill="#00B068" />
</svg>
<svg id="icon-top" viewBox="0 0 24 24" fill="none" xmlns="http://www.w3.org/2000/svg">
  <path d="M18 15L12 9L6 15" stroke="#292929" stroke-width="2" stroke-linecap="round" />
  <svg id="icon-down" viewBox="0 0 24 24" fill="none" xmlns="http://www.w3.org/2000/svg">
  <path d="M18 9L12 15L6 9" stroke="#292929" stroke-width="2" stroke-linecap="round" />
</svg>
</svg>
</defs>
</svg>
